<svg width="87" height="87" viewBox="0 0 87 87" fill="none" xmlns="http://www.w3.org/2000/svg">
<g clip-path="url(#clip0_876_1497)">
<path d="M81.4322 6.19775C81.4322 5.64547 80.9844 5.19775 80.4322 5.19775H6.19775C5.64547 5.19775 5.19775 5.64547 5.19775 6.19775V23.2563C5.19775 23.8086 5.64547 24.2563 6.19775 24.2563H80.4322C80.9844 24.2563 81.4322 23.8086 81.4322 23.2563V6.19775Z" fill="white" stroke="#0F2124" stroke-width="4.3315"/>
<path d="M81.4322 34.7856C81.4322 34.2334 80.9844 33.7856 80.4322 33.7856H6.19775C5.64547 33.7856 5.19775 34.2334 5.19775 34.7856V51.8442C5.19775 52.3965 5.64547 52.8442 6.19775 52.8442H80.4322C80.9844 52.8442 81.4322 52.3965 81.4322 51.8442V34.7856Z" fill="white" stroke="#0F2124" stroke-width="4.3315"/>
<path d="M81.4322 63.3733C81.4322 62.821 80.9844 62.3733 80.4322 62.3733H6.19775C5.64547 62.3733 5.19775 62.821 5.19775 63.3733V80.4319C5.19775 80.9842 5.64547 81.4319 6.19775 81.4319H80.4322C80.9844 81.4319 81.4322 80.9842 81.4322 80.4319V63.3733Z" fill="white" stroke="#0F2124" stroke-width="4.3315"/>
<path d="M24.2563 5.19775V24.2563" stroke="#0F2124" stroke-width="3.4652"/>
<path d="M24.2563 33.7856V52.8442" stroke="#0F2124" stroke-width="3.4652"/>
<path d="M24.2563 62.3733V81.4319" stroke="#0F2124" stroke-width="3.4652"/>
<path d="M62.3739 62.3733V81.4319" stroke="#0F2124" stroke-width="3.4652"/>
<path d="M43.3149 5.19775V24.2563" stroke="#0F2124" stroke-width="3.4652"/>
<path d="M43.3149 33.7856V52.8442" stroke="#0F2124" stroke-width="3.4652"/>
<path d="M62.3737 5.19775L62.3737 24.2563" stroke="#0F2124" stroke-width="3.4652"/>
<path d="M5.19775 24.2563H81.4322" stroke="#0F2124" stroke-width="3.47"/>
<path d="M62.3735 33.7856H43.3149V52.8442H62.3735V33.7856Z" fill="#0F2124"/>
<path d="M24.2564 62.3733H5.19775V81.4319H24.2564V62.3733Z" fill="#0F2124"/>
<path d="M81.4321 33.7856H62.3735V52.8442H81.4321V33.7856Z" fill="#0F2124"/>
<path d="M62.3735 62.3733H43.3149V81.4319H62.3735V62.3733Z" fill="#0F2124"/>
<path d="M81.4325 62.3733H62.3739V81.4319H81.4325V62.3733Z" fill="#0F2124"/>
</g>
<defs>
<clipPath id="clip0_876_1497">
<rect width="86.63" height="86.63" fill="white"/>
</clipPath>
</defs>
</svg>
