<svg width="87" height="87" viewBox="0 0 87 87" fill="none" xmlns="http://www.w3.org/2000/svg">
<path d="M81.4322 7.19775C81.4322 6.09318 80.5367 5.19775 79.4322 5.19775H7.19775C6.09318 5.19775 5.19775 6.09318 5.19775 7.19775V79.4322C5.19775 80.5367 6.09318 81.4322 7.19775 81.4322H79.4322C80.5367 81.4322 81.4322 80.5367 81.4322 79.4322V7.19775Z" fill="white" stroke="#0F2124" stroke-width="4.3315"/>
<path d="M30.5804 5.19775V81.4322" stroke="#0F2124" stroke-width="3.47"/>
<path d="M56.0496 5.19775V81.4322" stroke="#0F2124" stroke-width="3.47"/>
<path d="M5.19775 30.5803H81.4322" stroke="#0F2124" stroke-width="3.47"/>
<path d="M5.19775 56.0496H81.4322" stroke="#0F2124" stroke-width="3.47"/>
<path d="M68.883 23.502C67.4623 23.502 66.4315 23.2508 65.34 22.6444L64.9502 20.0717H65.981C66.4921 21.6916 67.2717 22.3586 68.7184 22.3586C70.0091 22.3586 70.7021 21.6136 70.7021 20.2969C70.7021 18.9542 69.9225 18.2526 68.3199 18.2526H67.4883V17.2824C69.472 17.0052 70.2343 16.4248 70.2343 15.0994C70.2343 14.0686 69.6713 13.4968 68.753 13.4968C67.471 13.4968 66.7607 14.2332 66.4575 15.7924H65.4266V13.3756C66.3015 12.7172 67.5056 12.3621 68.8916 12.3621C71.1959 12.3621 72.5732 13.3149 72.5732 15.0128C72.5732 16.2948 71.7329 17.0831 70.5288 17.4643C72.2007 17.8974 73.041 18.7203 73.041 20.141C73.041 22.168 71.4817 23.4934 68.8743 23.4934L68.883 23.502Z" fill="#0F2124"/>
<path d="M15.1862 74.223V73.4592C16.5548 73.3637 17.064 72.9817 17.064 72.0428V65.693H15.1862V64.7858C17.0163 64.6267 17.9075 64.0856 18.6077 63.083H19.3557V72.0428C19.3557 72.9817 19.865 73.3637 21.2336 73.4592V74.223H15.1862Z" fill="#0F2124"/>
<path d="M39.3822 48.82V48.153L42.6566 44.4281C44.1552 42.7129 44.571 41.9939 44.571 40.8765C44.571 39.6724 43.9647 38.9361 42.9165 38.9361C41.6691 38.9361 40.9501 39.6377 40.6556 41.2316H39.6247V38.8148C40.4823 38.1564 41.6951 37.8013 43.0551 37.8013C45.5152 37.8013 46.8926 38.9101 46.8926 40.8765C46.8926 42.609 46.0177 43.839 43.6355 45.6322L41.4959 47.2521H43.7568C45.4113 47.2521 45.8877 46.9575 46.5114 45.5022H47.2564L46.7453 48.8286H39.3735L39.3822 48.82Z" fill="#0F2124"/>
<path d="M74.5656 67.8535V69.5414H63.4257V67.8535H74.5656Z" fill="#0F2124"/>
<path d="M68.1517 63.1274H69.8396V74.2673H68.1517V63.1274Z" fill="#0F2124"/>
<path d="M73.5647 72.073L72.3713 73.2664L64.4265 65.3215L65.6199 64.1282L73.5647 72.073Z" fill="#0F2124"/>
<path d="M73.5647 65.3215L65.6199 73.2664L64.4265 72.073L72.3713 64.1282L73.5647 65.3215Z" fill="#0F2124"/>
<path d="M22.6078 15.4587L15.655 13.1406C15.4447 13.0705 15.3395 13.0355 15.2666 13.0881C15.1937 13.1406 15.1937 13.2514 15.1937 13.4736V18.5948L22.6078 16.1232C23.0199 15.9858 23.226 15.9171 23.226 15.791C23.226 15.6648 23.0199 15.5961 22.6078 15.4587Z" fill="#0F2124"/>
<path d="M14.4927 13.4736C14.4927 13.3852 14.4908 13.2405 14.5092 13.1156C14.53 12.9737 14.5966 12.7071 14.8569 12.5193L14.9548 12.4584C15.1835 12.3372 15.4084 12.3564 15.5319 12.3783C15.6563 12.4004 15.7933 12.4477 15.8769 12.4755L22.8296 14.794C23.0144 14.8556 23.2232 14.9235 23.378 14.9987C23.4737 15.0453 23.9269 15.2651 23.9269 15.7914C23.9268 16.3174 23.4737 16.5368 23.378 16.5834C23.2232 16.6586 23.0144 16.7265 22.8296 16.7881L15.8947 19.0997V23.502H14.4927V13.4736ZM15.8947 17.6218L21.3867 15.7907L15.8947 13.9589V17.6218Z" fill="#0F2124"/>
</svg>
