<svg width="87" height="87" viewBox="0 0 87 87" fill="none" xmlns="http://www.w3.org/2000/svg">
<path d="M81.4322 7.19775C81.4322 6.09318 80.5367 5.19775 79.4322 5.19775H7.19775C6.09318 5.19775 5.19775 6.09318 5.19775 7.19775V79.4322C5.19775 80.5367 6.09318 81.4322 7.19775 81.4322H79.4322C80.5367 81.4322 81.4322 80.5367 81.4322 79.4322V7.19775Z" fill="white" stroke="#0F2124" stroke-width="4.3315"/>
<path d="M21.1841 28.7136C24.7017 28.7136 27.5533 25.8621 27.5533 22.3445C27.5533 18.8269 24.7017 15.9753 21.1841 15.9753C17.6665 15.9753 14.8149 18.8269 14.8149 22.3445C14.8149 25.8621 17.6665 28.7136 21.1841 28.7136Z" fill="#0F2124" stroke="#0F2124" stroke-width="2.16442"/>
<path d="M43.315 28.7136C46.8326 28.7136 49.6841 25.8621 49.6841 22.3445C49.6841 18.8269 46.8326 15.9753 43.315 15.9753C39.7974 15.9753 36.9458 18.8269 36.9458 22.3445C36.9458 25.8621 39.7974 28.7136 43.315 28.7136Z" fill="#0F2124" stroke="#0F2124" stroke-width="2.16442"/>
<path d="M65.4458 28.7136C68.9634 28.7136 71.815 25.8621 71.815 22.3445C71.815 18.8269 68.9634 15.9753 65.4458 15.9753C61.9282 15.9753 59.0767 18.8269 59.0767 22.3445C59.0767 25.8621 61.9282 28.7136 65.4458 28.7136Z" fill="#0F2124" stroke="#0F2124" stroke-width="2.16442"/>
<path d="M21.1841 49.6841C24.7017 49.6841 27.5533 46.8325 27.5533 43.315C27.5533 39.7974 24.7017 36.9458 21.1841 36.9458C17.6665 36.9458 14.8149 39.7974 14.8149 43.315C14.8149 46.8325 17.6665 49.6841 21.1841 49.6841Z" fill="white" stroke="#0F2124" stroke-width="2.16442"/>
<path d="M43.315 49.6841C46.8326 49.6841 49.6841 46.8325 49.6841 43.315C49.6841 39.7974 46.8326 36.9458 43.315 36.9458C39.7974 36.9458 36.9458 39.7974 36.9458 43.315C36.9458 46.8325 39.7974 49.6841 43.315 49.6841Z" fill="#0F2124" stroke="#0F2124" stroke-width="2.16442"/>
<path d="M65.4458 49.6841C68.9634 49.6841 71.815 46.8325 71.815 43.315C71.815 39.7974 68.9634 36.9458 65.4458 36.9458C61.9282 36.9458 59.0767 39.7974 59.0767 43.315C59.0767 46.8325 61.9282 49.6841 65.4458 49.6841Z" fill="white" stroke="#0F2124" stroke-width="2.16442"/>
<path d="M21.1841 70.6543C24.7017 70.6543 27.5533 67.8028 27.5533 64.2852C27.5533 60.7676 24.7017 57.916 21.1841 57.916C17.6665 57.916 14.8149 60.7676 14.8149 64.2852C14.8149 67.8028 17.6665 70.6543 21.1841 70.6543Z" fill="#0F2124" stroke="#0F2124" stroke-width="2.16442"/>
<path d="M43.315 70.6543C46.8326 70.6543 49.6841 67.8028 49.6841 64.2852C49.6841 60.7676 46.8326 57.916 43.315 57.916C39.7974 57.916 36.9458 60.7676 36.9458 64.2852C36.9458 67.8028 39.7974 70.6543 43.315 70.6543Z" fill="white" stroke="#0F2124" stroke-width="2.16442"/>
<path d="M65.4458 70.6543C68.9634 70.6543 71.815 67.8028 71.815 64.2852C71.815 60.7676 68.9634 57.916 65.4458 57.916C61.9282 57.916 59.0767 60.7676 59.0767 64.2852C59.0767 67.8028 61.9282 70.6543 65.4458 70.6543Z" fill="#0F2124" stroke="#0F2124" stroke-width="2.16442"/>
</svg>
