<svg xmlns="http://www.w3.org/2000/svg" viewBox="0 0 100 100" width="100" height="100" fill="none">
  <path d="M94 6H6V94H94V6Z" fill="#ffffff" stroke="currentColor" stroke-width="5"/>
  <path d="M28 6V94" stroke="currentColor" stroke-width="4"/>
  <path d="M50 6V94" stroke="currentColor" stroke-width="4"/>
  <path d="M72 6V94" stroke="currentColor" stroke-width="4"/>
  <path d="M6 28H94" stroke="currentColor" stroke-width="4"/>
  <path d="M6 50H94" stroke="currentColor" stroke-width="4"/>
  <path d="M6 72H94" stroke="currentColor" stroke-width="4"/>
  <path d="M6 6H28V28H6V6Z" fill="currentColor"/>
  <path d="M50 6H72V28H50V6Z" fill="currentColor"/>
  <path d="M72 6H94V28H72V6Z" fill="currentColor"/>
  <path d="M28 28H50V50H28V28Z" fill="currentColor"/>
  <path d="M6 50H28V72H6V50Z" fill="currentColor"/>
  <path d="M50 50H72V72H50V50Z" fill="currentColor"/>
  <path d="M72 50H94V72H72V50Z" fill="currentColor"/>
  <path d="M28 72H50V94H28V72Z" fill="currentColor"/>
  <path d="M72 72H94V94H72V72Z" fill="currentColor"/>
</svg>
