<svg width="207" height="18" viewBox="0 0 207 18" fill="none" xmlns="http://www.w3.org/2000/svg">
<g clip-path="url(#clip0_859_2809)">
<path d="M185.365 4.76378C186.138 4.8955 186.811 5.03454 187.387 5.18089C187.977 5.32724 188.492 5.48822 188.93 5.66386C189.385 5.83948 189.778 6.03706 190.111 6.25658C190.46 6.47611 190.785 6.72491 191.088 7.00298C191.406 7.32496 191.671 7.63962 191.882 7.94695C192.094 8.2543 192.268 8.57627 192.405 8.91288C192.541 9.23486 192.639 9.5861 192.7 9.96662C192.76 10.3325 192.79 10.735 192.79 11.174C192.79 13.062 192.223 14.5475 191.088 15.6305C190.422 16.2744 189.627 16.7647 188.703 17.1013C187.795 17.4233 186.796 17.5843 185.706 17.5843C184.737 17.5843 183.973 17.4452 183.412 17.1672C182.868 16.8892 182.595 16.516 182.595 16.0476C182.595 15.4183 182.95 15.1036 183.662 15.1036C183.966 15.1036 184.268 15.1694 184.57 15.3012C184.873 15.4183 185.229 15.6305 185.638 15.9378C186.046 16.2158 186.372 16.4062 186.614 16.5086C186.856 16.611 187.106 16.6622 187.364 16.6622C187.879 16.6622 188.355 16.5524 188.794 16.333C189.234 16.1135 189.612 15.8134 189.93 15.433C190.263 15.0378 190.52 14.5841 190.701 14.0718C190.884 13.5596 190.974 13.0034 190.974 12.4034C190.974 11.1009 190.611 10.0544 189.884 9.26413C189.158 8.4592 188.014 7.82256 186.456 7.35422C185.925 7.22251 185.433 7.12007 184.98 7.04689C184.54 6.95908 184.124 6.91517 183.73 6.91517C183.518 6.91517 183.412 6.84931 183.412 6.71759C183.412 6.64441 183.42 6.60052 183.435 6.58588L186.25 0.636635H191.678C191.95 0.636635 192.163 0.600047 192.314 0.52687C192.481 0.439058 192.669 0.263435 192.882 0H193.22L192.11 2.41482C192.064 2.488 192.003 2.54654 191.928 2.59044C191.868 2.61972 191.731 2.63435 191.52 2.63435H186.456L185.365 4.76378Z" fill="#687476"/>
<path d="M181.198 17.5967H171.055V17.2881L175.682 12.5476C176.776 11.4158 177.613 10.2913 178.19 9.17423C178.783 8.05711 179.079 7.00614 179.079 6.02131C179.079 4.94828 178.744 4.0884 178.076 3.44165C177.422 2.7802 176.525 2.44948 175.385 2.44948C174.929 2.44948 174.527 2.50826 174.177 2.62586C173.828 2.72875 173.509 2.91248 173.219 3.17707C172.931 3.42695 172.658 3.75768 172.399 4.16924C172.141 4.58082 171.883 5.09527 171.623 5.71264L171.077 5.60239C171.183 5.16143 171.29 4.7719 171.397 4.43383C171.518 4.09576 171.639 3.79442 171.76 3.52985C171.897 3.26526 172.042 3.02273 172.193 2.80225C172.346 2.58176 172.528 2.36128 172.741 2.1408C173.228 1.64104 173.789 1.25886 174.428 0.994283C175.082 0.729702 175.766 0.597412 176.48 0.597412C177.164 0.597412 177.795 0.715004 178.372 0.950186C178.965 1.17067 179.474 1.47935 179.9 1.87621C180.34 2.27309 180.682 2.74345 180.925 3.28732C181.184 3.81647 181.312 4.38973 181.312 5.00708C181.312 6.02131 181.039 7.02084 180.493 8.00566C179.96 8.99049 179.125 10.0782 177.985 11.2688L173.607 15.6785H179.809C180.097 15.6785 180.347 15.6639 180.561 15.6345C180.773 15.5903 180.963 15.5094 181.13 15.3918C181.312 15.2742 181.487 15.1053 181.654 14.8847C181.837 14.6643 183.279 12.1027 183.523 11.7352H183.971L181.198 17.5967Z" fill="#687476"/>
<path d="M196.603 1.03692C196.4 1.06084 196.244 1.15783 196.132 1.3279C196.021 1.49797 195.964 1.70657 195.964 1.9537C195.964 2.13439 195.993 2.2925 196.052 2.42803C196.111 2.56223 196.191 2.66718 196.293 2.74292C196.395 2.81732 196.512 2.85452 196.642 2.85452C196.752 2.85452 196.845 2.82862 196.923 2.7768C197 2.72365 197.065 2.65589 197.116 2.57352C197.167 2.49114 197.209 2.40478 197.242 2.31443C197.274 2.22408 197.3 2.14104 197.319 2.06531L197.432 1.65077C197.46 1.54447 197.498 1.42622 197.547 1.29601C197.596 1.16448 197.664 1.03892 197.749 0.919341C197.832 0.798434 197.94 0.698782 198.072 0.620391C198.202 0.542001 198.364 0.502808 198.555 0.502808C198.776 0.502808 198.975 0.560602 199.153 0.676196C199.332 0.79046 199.473 0.957873 199.578 1.17843C199.683 1.39766 199.735 1.66405 199.735 1.97761C199.735 2.26992 199.688 2.52302 199.593 2.73694C199.5 2.94953 199.368 3.11694 199.2 3.23917C199.03 3.36008 198.835 3.42851 198.612 3.44444V2.93424C198.765 2.92096 198.892 2.86914 198.994 2.77879C199.094 2.68711 199.168 2.57153 199.218 2.43202C199.264 2.29117 199.288 2.13971 199.288 1.97761C199.288 1.78895 199.258 1.61954 199.197 1.4694C199.135 1.31927 199.048 1.20035 198.938 1.11266C198.826 1.02497 198.697 0.981124 198.548 0.981124C198.412 0.981124 198.302 1.01899 198.217 1.09472C198.132 1.17046 198.062 1.2701 198.009 1.39367C197.956 1.51723 197.91 1.65077 197.87 1.79426L197.726 2.29649C197.635 2.61538 197.504 2.86781 197.334 3.05382C197.163 3.23983 196.941 3.33284 196.666 3.33284C196.437 3.33284 196.238 3.27106 196.068 3.14749C195.897 3.0226 195.764 2.8552 195.669 2.64527C195.574 2.43401 195.526 2.19817 195.526 1.93776C195.526 1.67468 195.573 1.44084 195.668 1.23623C195.76 1.03161 195.888 0.869516 196.051 0.749937C196.213 0.62903 196.396 0.565254 196.603 0.558611V1.03692Z" fill="#687476"/>
<path d="M197.623 4.66138C198.054 4.66138 198.426 4.7391 198.739 4.89455C199.052 5.05001 199.294 5.26325 199.465 5.53429C199.634 5.80535 199.719 6.11493 199.719 6.46303C199.719 6.81114 199.634 7.12072 199.465 7.39176C199.294 7.66281 199.052 7.87606 198.739 8.03151C198.426 8.18695 198.054 8.26469 197.623 8.26469C197.192 8.26469 196.82 8.18695 196.507 8.03151C196.194 7.87606 195.951 7.66281 195.781 7.39176C195.612 7.12072 195.526 6.81114 195.526 6.46303C195.526 6.11493 195.612 5.80535 195.781 5.53429C195.951 5.26325 196.194 5.05001 196.507 4.89455C196.82 4.7391 197.192 4.66138 197.623 4.66138ZM197.623 5.13969C197.269 5.13969 196.971 5.19881 196.728 5.31707C196.485 5.43399 196.3 5.59276 196.176 5.79338C196.051 5.99268 195.988 6.2159 195.988 6.46303C195.988 6.71016 196.051 6.93403 196.176 7.13466C196.3 7.33397 196.485 7.49274 196.728 7.61099C196.971 7.72791 197.269 7.78637 197.623 7.78637C197.976 7.78637 198.274 7.72791 198.518 7.61099C198.76 7.49274 198.945 7.33397 199.07 7.13466C199.195 6.93403 199.257 6.71016 199.257 6.46303C199.257 6.2159 199.195 5.99268 199.07 5.79338C198.945 5.59276 198.76 5.43399 198.518 5.31707C198.274 5.19881 197.976 5.13969 197.623 5.13969Z" fill="#687476"/>
<path d="M195.581 9.65527H199.664V10.1336L196.459 12.3577V12.3976H199.664V12.8919H195.581V12.4135L198.794 10.1814V10.1416H195.581V9.65527ZM195.215 11.8874L195.199 12.2542C194.996 12.2542 194.83 12.1963 194.701 12.0808C194.571 11.9638 194.505 11.8197 194.505 11.6483C194.505 11.5725 194.518 11.5054 194.546 11.447C194.571 11.3885 194.6 11.3327 194.633 11.2796C194.666 11.2264 194.696 11.1719 194.722 11.1161C194.747 11.059 194.761 10.9946 194.761 10.9228C194.761 10.8471 194.732 10.7833 194.673 10.7315C194.613 10.6783 194.541 10.6518 194.457 10.6518L194.489 10.293C194.697 10.293 194.861 10.3515 194.984 10.4684C195.106 10.584 195.167 10.7275 195.167 10.8989C195.167 10.9906 195.154 11.0663 195.129 11.1261C195.103 11.1859 195.073 11.239 195.039 11.2855C195.007 11.332 194.977 11.3812 194.951 11.433C194.925 11.4848 194.912 11.5486 194.912 11.6243C194.912 11.7001 194.942 11.7632 195.002 11.8137C195.061 11.8628 195.131 11.8874 195.215 11.8874Z" fill="#687476"/>
<path d="M199.663 17.0784V17.5966L195.582 16.0979V15.5877L199.663 14.089V14.6071L196.227 15.8268V15.8587L199.663 17.0784ZM198.069 16.887V14.7984H198.507V16.887H198.069Z" fill="#687476"/>
<path d="M5.99561 17.5967V16.2359H7.94761V2.10292H5.99561V0.742188H19.6906V4.73159H18.2963V2.28847H11.8826V7.70045H15.8796V5.56658H17.2739V11.4115H15.8796V9.27766H11.8826V16.1123H18.4822V13.6691H19.8765V17.6585H5.99561V17.5967Z" fill="#121212"/>
<path d="M25.6394 16.236H27.1886V17.5967H20.4961V16.236H22.0453V1.36072H20.4961V0H25.6394V16.236Z" fill="#121212"/>
<path d="M48.1962 12.7724C47.7935 14.5042 47.0808 15.8031 46.0273 16.638C44.9738 17.473 43.5796 17.906 41.8445 17.906C39.2728 17.906 37.2278 17.1329 35.7406 15.5556C34.2534 13.9785 33.5098 11.8446 33.5098 9.15405C33.5098 6.46353 34.2534 4.32965 35.7406 2.75244C37.2278 1.17524 39.2728 0.4021 41.8445 0.4021C42.743 0.4021 43.6726 0.525803 44.664 0.773208C45.6556 1.02061 46.678 1.39173 47.7624 1.85561V5.99964H46.4921C46.2132 4.57705 45.7484 3.52559 45.0359 2.8143C44.3232 2.10301 43.4246 1.76283 42.2783 1.76283C40.791 1.76283 39.6756 2.38134 38.9629 3.58744C38.2504 4.79353 37.8785 6.64907 37.8785 9.15405C37.8785 11.659 38.2504 13.5146 38.9629 14.7207C39.6756 15.9268 40.791 16.5143 42.2783 16.5143C43.3007 16.5143 44.1373 16.2051 44.757 15.5866C45.4076 14.9681 45.8724 14.0093 46.1513 12.7414H48.1962V12.7724Z" fill="#121212"/>
<path d="M55.0746 17.9369C53.1537 17.9369 51.6664 17.3803 50.5819 16.236C49.4975 15.1226 48.9707 13.5455 48.9707 11.5972C48.9707 9.61792 49.4975 8.07163 50.5819 6.95831C51.6664 5.84499 53.1537 5.28833 55.0746 5.28833C56.9957 5.28833 58.4829 5.84499 59.5673 6.95831C60.6517 8.07163 61.1785 9.61792 61.1785 11.5972C61.1785 13.5764 60.6208 15.1226 59.5363 16.236C58.4519 17.3803 56.9646 17.9369 55.0746 17.9369ZM55.0746 16.6689C55.8183 16.6689 56.376 16.2979 56.6859 15.5865C56.9957 14.8753 57.1506 13.5455 57.1506 11.5972C57.1506 9.67977 56.9957 8.34996 56.6859 7.63867C56.376 6.92739 55.8492 6.55629 55.0746 6.55629C54.3 6.55629 53.7733 6.92739 53.4635 7.63867C53.1537 8.34996 52.9987 9.67977 52.9987 11.5972C52.9987 13.5145 53.1537 14.8443 53.4635 15.5556C53.7423 16.2979 54.3 16.6689 55.0746 16.6689Z" fill="#121212"/>
<path d="M61.0234 17.5968V16.236H62.5726V6.95831H61.0234V5.59758H66.1669V7.2985C66.6006 6.58721 67.0964 6.06147 67.654 5.75221C68.2118 5.44296 68.9245 5.28833 69.761 5.28833C70.9694 5.28833 71.8989 5.69037 72.5186 6.49443C73.1383 7.2985 73.4481 8.47367 73.4481 10.02V16.2979H74.9973V17.6586H68.5216V16.2979H69.8229V9.8344C69.8229 8.81385 69.6991 8.10256 69.4821 7.70053C69.2343 7.2985 68.8315 7.11294 68.2737 7.11294C67.5612 7.11294 67.0034 7.42219 66.6626 8.00979C66.3218 8.59737 66.1669 9.55607 66.1669 10.824V16.205H67.4682V17.5658H61.0234V17.5968Z" fill="#121212"/>
<path d="M84.9738 3.03079H83.8274C83.7654 2.4432 83.6104 2.01024 83.3626 1.73191C83.1147 1.45358 82.743 1.29895 82.2782 1.29895C81.7204 1.29895 81.3487 1.51543 81.1008 1.94839C80.8528 2.38135 80.729 3.09264 80.729 4.05133V5.59762H83.4555V6.95834H80.729V16.236H82.8049V17.5967H75.5546V16.236H77.1038V6.95834H75.4927V5.59762H77.1038V4.08227C77.1038 2.75246 77.4756 1.73191 78.2502 1.05155C79.0248 0.371188 80.1403 0.0310059 81.6274 0.0310059C82.2162 0.0310059 82.7739 0.0619314 83.3316 0.123783C83.8893 0.185634 84.4161 0.309336 84.9428 0.433038V3.03079H84.9738Z" fill="#121212"/>
<path d="M89.3739 16.236H90.9231V17.5967H84.2305V16.236H85.7798V6.95834H84.2305V5.59762H89.3739V16.236ZM85.4079 2.1958C85.4079 1.57729 85.5938 1.08248 85.9657 0.649518C86.3374 0.21656 86.8022 0.0310059 87.36 0.0310059C87.8866 0.0310059 88.3514 0.247485 88.7233 0.649518C89.095 1.05155 89.2809 1.57729 89.2809 2.1958C89.2809 2.78339 89.095 3.30912 88.7233 3.71116C88.3514 4.11319 87.8866 4.32967 87.36 4.32967C86.8022 4.32967 86.3374 4.11319 85.9657 3.71116C85.5938 3.30912 85.4079 2.78339 85.4079 2.1958Z" fill="#121212"/>
<path d="M102.852 16.236H104.401V17.5967H99.2575V16.0813C98.9477 16.6998 98.5448 17.1637 98.0182 17.4729C97.4914 17.7822 96.8407 17.9369 96.0971 17.9369C94.5788 17.9369 93.3704 17.3802 92.4719 16.236C91.6044 15.0917 91.1396 13.5455 91.1396 11.5971C91.1396 9.61788 91.5734 8.07159 92.4719 6.95827C93.3395 5.84494 94.5479 5.28829 96.0971 5.28829C96.8717 5.28829 97.4914 5.44291 98.0182 5.75217C98.5448 6.06142 98.9477 6.52531 99.2575 7.14382V1.36072H97.7082V0H102.883V16.236H102.852ZM99.2264 12.1847V11.0095C99.2264 9.61787 99.0715 8.59732 98.7307 7.97881C98.4209 7.3603 97.8942 7.05104 97.1815 7.05104C96.4379 7.05104 95.9112 7.39123 95.6014 8.04067C95.2915 8.69011 95.1366 9.8962 95.1366 11.628C95.1366 13.3598 95.2915 14.5351 95.6014 15.2154C95.9112 15.8648 96.4379 16.205 97.1815 16.205C97.8942 16.205 98.4209 15.8958 98.7307 15.2773C99.0715 14.5969 99.2264 13.5763 99.2264 12.1847Z" fill="#121212"/>
<path d="M116.02 12.1537H108.584V12.2466C108.584 13.7928 108.801 14.9062 109.203 15.6174C109.637 16.2978 110.319 16.638 111.248 16.638C112.023 16.638 112.643 16.4215 113.138 15.9576C113.634 15.4938 113.944 14.8444 114.068 13.9475H115.772C115.462 15.3082 114.904 16.3288 114.037 16.9472C113.169 17.5967 111.961 17.9059 110.412 17.9059C108.522 17.9059 107.097 17.3492 106.105 16.2668C105.114 15.1844 104.618 13.6073 104.618 11.5662C104.618 9.58695 105.114 8.00974 106.167 6.89642C107.189 5.78311 108.615 5.22644 110.443 5.22644C112.24 5.22644 113.603 5.81403 114.564 6.9892C115.462 8.1953 115.958 9.8962 116.02 12.1537ZM112.054 10.824C112.054 9.24678 111.93 8.13345 111.651 7.48401C111.372 6.83457 110.939 6.52532 110.288 6.52532C109.668 6.52532 109.234 6.83457 108.956 7.45309C108.677 8.0716 108.553 9.12307 108.553 10.6075V10.824H112.054Z" fill="#121212"/>
<path d="M116.144 17.5968V16.236H117.693V6.95831H116.144V5.59758H121.287V7.2985C121.721 6.58721 122.217 6.06147 122.775 5.75221C123.332 5.44296 124.045 5.28833 124.882 5.28833C126.09 5.28833 127.02 5.69037 127.639 6.49443C128.258 7.2985 128.569 8.47367 128.569 10.02V16.2979H130.118V17.6586H123.642V16.2979H124.944V9.8344C124.944 8.81385 124.82 8.10256 124.603 7.70053C124.355 7.2985 123.952 7.11294 123.394 7.11294C122.682 7.11294 122.124 7.42219 121.783 8.00979C121.442 8.59737 121.287 9.55607 121.287 10.824V16.205H122.589V17.5658H116.144V17.5968Z" fill="#121212"/>
<path d="M141.21 13.8547C140.931 15.2153 140.405 16.2359 139.629 16.9163C138.824 17.5966 137.739 17.9368 136.376 17.9368C134.455 17.9368 132.937 17.3801 131.883 16.2669C130.831 15.1535 130.304 13.6072 130.304 11.5971C130.304 9.61784 130.831 8.04063 131.883 6.9273C132.937 5.81398 134.394 5.25732 136.221 5.25732C136.965 5.25732 137.739 5.3501 138.515 5.50473C139.289 5.65935 140.064 5.90676 140.869 6.21602V9.55598H139.723C139.629 8.53544 139.351 7.79322 138.918 7.29842C138.483 6.8036 137.895 6.55619 137.12 6.55619C136.129 6.55619 135.385 6.9273 134.982 7.70044C134.549 8.44266 134.331 9.77246 134.331 11.628C134.331 13.4527 134.549 14.7515 134.952 15.5246C135.354 16.2977 136.035 16.6999 136.965 16.6999C137.678 16.6999 138.266 16.4524 138.701 15.9885C139.134 15.4937 139.413 14.8133 139.506 13.9165H141.21V13.8547Z" fill="#121212"/>
<path d="M146.85 16.236H148.399V17.5967H141.707V16.236H143.256V6.95834H141.707V5.59762H146.85V16.236ZM142.884 2.1958C142.884 1.57729 143.07 1.08248 143.441 0.649518C143.813 0.21656 144.278 0.0310059 144.835 0.0310059C145.362 0.0310059 145.827 0.247485 146.198 0.649518C146.57 1.05155 146.756 1.57729 146.756 2.1958C146.756 2.78339 146.57 3.30912 146.198 3.71116C145.827 4.11319 145.362 4.32967 144.835 4.32967C144.278 4.32967 143.813 4.11319 143.441 3.71116C143.1 3.30912 142.884 2.78339 142.884 2.1958Z" fill="#121212"/>
<path d="M159.243 10.2364V16.236H160.792V17.5967H155.649V16.0813C155.184 16.6998 154.657 17.1947 154.069 17.473C153.48 17.7822 152.829 17.9369 152.085 17.9369C150.97 17.9369 150.134 17.5967 149.545 16.9472C148.957 16.2978 148.646 15.3391 148.646 14.102C148.646 12.7414 149.08 11.7518 149.917 11.0714C150.753 10.391 152.055 10.0508 153.759 10.0508H155.649V9.33955C155.649 8.38086 155.432 7.63864 155.029 7.17476C154.627 6.71088 153.975 6.4944 153.108 6.4944C152.396 6.4944 151.838 6.64902 151.435 6.9892C151.032 7.32938 150.784 7.85512 150.598 8.59734H149.452V5.99959C150.103 5.75217 150.784 5.5357 151.466 5.412C152.148 5.28829 152.892 5.22644 153.666 5.22644C155.618 5.22644 157.012 5.62848 157.911 6.43254C158.809 7.26753 159.243 8.50456 159.243 10.2364ZM155.649 13.8238V11.4116H154.286C153.604 11.4116 153.108 11.628 152.737 12.0301C152.365 12.4321 152.179 13.0196 152.179 13.7928C152.179 14.566 152.302 15.1226 152.581 15.4938C152.86 15.8648 153.232 16.0504 153.789 16.0504C154.347 16.0504 154.813 15.8339 155.122 15.4319C155.463 15.0299 155.649 14.5042 155.649 13.8238Z" fill="#121212"/>
<path d="M166.369 16.236H167.918V17.5967H161.226V16.236H162.775V1.36072H161.226V0H166.369V16.236Z" fill="#121212"/>
</g>
<defs>
<clipPath id="clip0_859_2809">
<rect width="206.39" height="17.9999" fill="white"/>
</clipPath>
</defs>
</svg>
