<svg width="87" height="87" viewBox="0 0 87 87" fill="none" xmlns="http://www.w3.org/2000/svg">
<path d="M81.4322 7.19775C81.4322 6.09318 80.5367 5.19775 79.4322 5.19775H7.19775C6.09318 5.19775 5.19775 6.09318 5.19775 7.19775V79.4322C5.19775 80.5367 6.09318 81.4322 7.19775 81.4322H79.4322C80.5367 81.4322 81.4322 80.5367 81.4322 79.4322V7.19775Z" fill="white" stroke="#0F2124" stroke-width="4.3315"/>
<path d="M23.1868 30.1846C26.7044 30.1846 29.556 27.333 29.556 23.8154C29.556 20.2979 26.7044 17.4463 23.1868 17.4463C19.6692 17.4463 16.8176 20.2979 16.8176 23.8154C16.8176 27.333 19.6692 30.1846 23.1868 30.1846Z" fill="#0F2124" stroke="#0F2124" stroke-width="2.16442"/>
<path d="M63.4433 30.1846C66.9609 30.1846 69.8124 27.333 69.8124 23.8154C69.8124 20.2979 66.9609 17.4463 63.4433 17.4463C59.9257 17.4463 57.0741 20.2979 57.0741 23.8154C57.0741 27.333 59.9257 30.1846 63.4433 30.1846Z" fill="#0F2124" stroke="#0F2124" stroke-width="2.16442"/>
<path d="M43.3151 50.1858C46.8327 50.1858 49.6843 47.3342 49.6843 43.8167C49.6843 40.2991 46.8327 37.4475 43.3151 37.4475C39.7975 37.4475 36.9459 40.2991 36.9459 43.8167C36.9459 47.3342 39.7975 50.1858 43.3151 50.1858Z" fill="#0F2124" stroke="#0F2124" stroke-width="2.16442"/>
<path d="M23.1868 69.1834C26.7044 69.1834 29.556 66.3318 29.556 62.8142C29.556 59.2966 26.7044 56.4451 23.1868 56.4451C19.6692 56.4451 16.8176 59.2966 16.8176 62.8142C16.8176 66.3318 19.6692 69.1834 23.1868 69.1834Z" fill="#0F2124" stroke="#0F2124" stroke-width="2.16442"/>
<path d="M63.4433 69.1834C66.9609 69.1834 69.8124 66.3318 69.8124 62.8142C69.8124 59.2966 66.9609 56.4451 63.4433 56.4451C59.9257 56.4451 57.0741 59.2966 57.0741 62.8142C57.0741 66.3318 59.9257 69.1834 63.4433 69.1834Z" fill="#0F2124" stroke="#0F2124" stroke-width="2.16442"/>
</svg>
