<svg width="87" height="87" viewBox="0 0 87 87" fill="none" xmlns="http://www.w3.org/2000/svg">
<path d="M81.4322 17.4539C81.4322 16.3493 80.5367 15.4539 79.4322 15.4539H7.19775C6.09318 15.4539 5.19775 16.3493 5.19775 17.4539V79.4322C5.19775 80.5367 6.09318 81.4322 7.19775 81.4322H79.4322C80.5367 81.4322 81.4322 80.5367 81.4322 79.4322V17.4539Z" fill="white" stroke="#0F2124" stroke-width="4.3315"/>
<path d="M81.4322 6.69165C81.4322 5.58708 80.5367 4.69165 79.4322 4.69165H7.19775C6.09318 4.69165 5.19775 5.58708 5.19775 6.69165V79.4322C5.19775 80.5367 6.09318 81.4322 7.19775 81.4322H79.4322C80.5367 81.4322 81.4322 80.5367 81.4322 79.4322V6.69165Z" fill="white" stroke="#0F2124" stroke-width="4.3315"/>
<path d="M20.0649 14.0596L66.5649 14.0596" stroke="#0F2124" stroke-width="4.33" stroke-linecap="round"/>
<rect x="5.31494" y="24.1548" width="76" height="57" rx="2" stroke="#0F2124" stroke-width="4.33"/>
<path d="M24.8149 34.4048C24.8149 33.3002 23.9195 32.4048 22.8149 32.4048H17.3149C16.2104 32.4048 15.3149 33.3002 15.3149 34.4048V39.9048C15.3149 41.0094 16.2104 41.9048 17.3149 41.9048H22.8149C23.9195 41.9048 24.8149 41.0094 24.8149 39.9048V34.4048Z" fill="#0F2124"/>
<path d="M40.3149 34.4048C40.3149 33.3002 39.4195 32.4048 38.3149 32.4048H32.8149C31.7104 32.4048 30.8149 33.3002 30.8149 34.4048V39.9048C30.8149 41.0094 31.7104 41.9048 32.8149 41.9048H38.3149C39.4195 41.9048 40.3149 41.0094 40.3149 39.9048V34.4048Z" fill="#0F2124"/>
<path d="M48.3149 33.4048H53.8149C54.3672 33.4048 54.8149 33.8525 54.8149 34.4048V39.9048C54.8149 40.4571 54.3672 40.9048 53.8149 40.9048H48.3149C47.7627 40.9048 47.3149 40.4571 47.3149 39.9048V34.4048C47.3149 33.8525 47.7627 33.4048 48.3149 33.4048Z" fill="#0F2124" stroke="#0F2124" stroke-width="2"/>
<path d="M63.8149 33.4048H69.3149C69.8672 33.4048 70.3149 33.8525 70.3149 34.4048V39.9048C70.3149 40.4571 69.8672 40.9048 69.3149 40.9048H63.8149C63.2627 40.9048 62.8149 40.4571 62.8149 39.9048V34.4048C62.8149 33.8525 63.2627 33.4048 63.8149 33.4048Z" fill="#0F2124" stroke="#0F2124" stroke-width="2"/>
<path d="M24.8149 49.9048C24.8149 48.8002 23.9195 47.9048 22.8149 47.9048H17.3149C16.2104 47.9048 15.3149 48.8002 15.3149 49.9048V55.4048C15.3149 56.5094 16.2104 57.4048 17.3149 57.4048H22.8149C23.9195 57.4048 24.8149 56.5094 24.8149 55.4048V49.9048Z" fill="#0F2124"/>
<path d="M40.3149 49.9048C40.3149 48.8002 39.4195 47.9048 38.3149 47.9048H32.8149C31.7104 47.9048 30.8149 48.8002 30.8149 49.9048V55.4048C30.8149 56.5094 31.7104 57.4048 32.8149 57.4048H38.3149C39.4195 57.4048 40.3149 56.5094 40.3149 55.4048V49.9048Z" fill="#0F2124"/>
<path d="M48.3149 48.9048H53.8149C54.3672 48.9048 54.8149 49.3525 54.8149 49.9048V55.4048C54.8149 55.9571 54.3672 56.4048 53.8149 56.4048H48.3149C47.7627 56.4048 47.3149 55.9571 47.3149 55.4048V49.9048C47.3149 49.3525 47.7627 48.9048 48.3149 48.9048Z" fill="#0F2124" stroke="#0F2124" stroke-width="2"/>
<path d="M63.8149 48.9048H69.3149C69.8672 48.9048 70.3149 49.3525 70.3149 49.9048V55.4048C70.3149 55.9571 69.8672 56.4048 69.3149 56.4048H63.8149C63.2627 56.4048 62.8149 55.9571 62.8149 55.4048V49.9048C62.8149 49.3525 63.2627 48.9048 63.8149 48.9048Z" fill="#0F2124" stroke="#0F2124" stroke-width="2"/>
<path d="M24.8149 65.4048C24.8149 64.3002 23.9195 63.4048 22.8149 63.4048H17.3149C16.2104 63.4048 15.3149 64.3002 15.3149 65.4048V70.9048C15.3149 72.0094 16.2104 72.9048 17.3149 72.9048H22.8149C23.9195 72.9048 24.8149 72.0094 24.8149 70.9048V65.4048Z" fill="#0F2124"/>
<path d="M40.3149 65.4048C40.3149 64.3002 39.4195 63.4048 38.3149 63.4048H32.8149C31.7104 63.4048 30.8149 64.3002 30.8149 65.4048V70.9048C30.8149 72.0094 31.7104 72.9048 32.8149 72.9048H38.3149C39.4195 72.9048 40.3149 72.0094 40.3149 70.9048V65.4048Z" fill="#0F2124"/>
<path d="M48.3149 64.4048H53.8149C54.3672 64.4048 54.8149 64.8525 54.8149 65.4048V70.9048C54.8149 71.4571 54.3672 71.9048 53.8149 71.9048H48.3149C47.7627 71.9048 47.3149 71.4571 47.3149 70.9048V65.4048C47.3149 64.8525 47.7627 64.4048 48.3149 64.4048Z" fill="#0F2124" stroke="#0F2124" stroke-width="2"/>
<path d="M63.8149 64.4048H69.3149C69.8672 64.4048 70.3149 64.8525 70.3149 65.4048V70.9048C70.3149 71.4571 69.8672 71.9048 69.3149 71.9048H63.8149C63.2627 71.9048 62.8149 71.4571 62.8149 70.9048V65.4048C62.8149 64.8525 63.2627 64.4048 63.8149 64.4048Z" fill="#0F2124" stroke="#0F2124" stroke-width="2"/>
</svg>
