<svg xmlns="http://www.w3.org/2000/svg" viewBox="0 0 100 100" width="100" height="100" fill="none">
  <path d="M94 6H6V94H94V6Z" fill="#ffffff" stroke="currentColor" stroke-width="5"/>
  <path d="M35.3 6V94" stroke="currentColor" stroke-width="1.2"/>
  <path d="M64.7 6V94" stroke="currentColor" stroke-width="1.2"/>
  <path d="M6 35.3H94" stroke="currentColor" stroke-width="1.2"/>
  <path d="M6 64.7H94" stroke="currentColor" stroke-width="1.2"/>
  <path d="M21.5004 28.126C19.8804 28.126 18.6744 27.838 17.4324 27.136L16.9824 24.166H18.1704C18.6924 26.02 19.6284 26.812 21.1764 26.812C22.6344 26.812 23.6424 26.074 23.6424 24.31C23.6424 22.006 21.4824 21.61 17.8284 21.34L19.2324 15.4H25.4784V17.218H20.3664L19.8984 19.27C23.7144 19.81 25.8384 20.674 25.8384 23.878C25.8384 26.344 24.0744 28.126 21.5004 28.126Z" fill="currentColor"/>
  <path d="M78.3644 27.126C76.7264 27.126 75.5384 26.838 74.2784 26.136L73.8284 23.166H75.0164C75.6104 25.038 76.5104 25.812 78.1844 25.812C79.6784 25.812 80.4704 24.948 80.4704 23.436C80.4704 21.888 79.5704 21.078 77.7164 21.078H76.7624V19.962C79.0484 19.638 79.9304 18.972 79.9304 17.442C79.9304 16.254 79.2824 15.588 78.2204 15.588C76.7444 15.588 75.9164 16.434 75.5744 18.234H74.3864V15.444C75.3944 14.688 76.7804 14.274 78.3824 14.274C81.0464 14.274 82.6304 15.372 82.6304 17.334C82.6304 18.81 81.6584 19.728 80.2724 20.16C82.1984 20.664 83.1704 21.618 83.1704 23.256C83.1704 25.596 81.3704 27.126 78.3644 27.126Z" fill="currentColor"/>
  <path d="M47.0933 56V55.82L52.7453 45.218H49.6313C47.7053 45.218 47.1653 45.56 46.4453 47.234H45.5813L46.1753 43.4H54.5093V44.174L50.0093 56H47.0933Z" fill="currentColor"/>
  <path d="M21.364 71.274C24.172 71.274 26.152 73.38 26.152 76.332C26.152 80.328 22.93 83.514 18.304 84.126V82.848C21.238 82.056 22.786 80.616 23.452 78.114C22.822 78.906 21.85 79.284 20.482 79.284C18.34 79.284 16.864 77.736 16.864 75.558C16.864 72.966 18.646 71.274 21.364 71.274ZM21.364 72.588C20.158 72.588 19.546 73.47 19.546 75.252C19.546 77.214 20.59 77.88 21.616 77.88C22.516 77.88 23.146 77.394 23.452 77.016V76.314C23.452 73.866 22.696 72.588 21.364 72.588Z" fill="currentColor"/>
  <path d="M74.0393 84V83.226L77.8193 78.924C79.5473 76.944 80.0333 76.116 80.0333 74.82C80.0333 73.434 79.3313 72.588 78.1253 72.588C76.6853 72.588 75.8573 73.398 75.5153 75.234H74.3273V72.444C75.3173 71.688 76.7213 71.274 78.2873 71.274C81.1313 71.274 82.7153 72.552 82.7153 74.82C82.7153 76.818 81.7073 78.24 78.9533 80.31L76.4873 82.182H79.0973C81.0053 82.182 81.5633 81.84 82.2833 80.166H83.1473L82.5533 84H74.0393Z" fill="currentColor"/>
</svg>
