<svg width="87" height="87" viewBox="0 0 87 87" fill="none" xmlns="http://www.w3.org/2000/svg">
<path d="M81.4322 7.19775C81.4322 6.09318 80.5367 5.19775 79.4322 5.19775H7.19775C6.09318 5.19775 5.19775 6.09318 5.19775 7.19775V79.4322C5.19775 80.5367 6.09318 81.4322 7.19775 81.4322H79.4322C80.5367 81.4322 81.4322 80.5367 81.4322 79.4322V7.19775Z" fill="white" stroke="#0F2124" stroke-width="4.3315"/>
<path d="M30.5804 5.19775V81.4322" stroke="#0F2124" stroke-width="3.47"/>
<path d="M56.0496 5.19775V81.4322" stroke="#0F2124" stroke-width="3.47"/>
<path d="M5.19775 30.5803H81.4322" stroke="#0F2124" stroke-width="3.47"/>
<path d="M5.19775 56.0496H81.4322" stroke="#0F2124" stroke-width="3.47"/>
<path d="M17.6252 23.3684C16.2218 23.3684 15.1737 23.1172 14.0995 22.5108L13.7097 19.9381H14.7406C15.191 21.5406 16.0053 22.225 17.3393 22.225C18.604 22.225 19.4789 21.584 19.4789 20.0594C19.4789 18.067 17.6078 17.7205 14.446 17.4866L15.6588 12.3411H21.0728V13.9176H16.6463L16.2392 15.6935C19.5482 16.1612 21.3847 16.9062 21.3847 19.6869C21.3847 21.8178 19.8601 23.3684 17.6252 23.3684Z" fill="#0F2124"/>
<path d="M40.794 48.5122V48.3562L45.697 39.174H42.9943C41.3311 39.174 40.8633 39.4685 40.2396 40.9238H39.4946L40.0057 37.5974H47.2216V38.2644L43.3235 48.5122H40.794Z" fill="#0F2124"/>
<path d="M68.883 23.502C67.4623 23.502 66.4315 23.2508 65.34 22.6444L64.9502 20.0717H65.981C66.4921 21.6916 67.2717 22.3586 68.7184 22.3586C70.0091 22.3586 70.7021 21.6136 70.7021 20.2969C70.7021 18.9542 69.9225 18.2526 68.3199 18.2526H67.4883V17.2824C69.472 17.0052 70.2343 16.4248 70.2343 15.0994C70.2343 14.0686 69.6713 13.4968 68.753 13.4968C67.471 13.4968 66.7607 14.2332 66.4575 15.7924H65.4266V13.3756C66.3015 12.7172 67.5056 12.3621 68.8916 12.3621C71.1959 12.3621 72.5732 13.3149 72.5732 15.0128C72.5732 16.2948 71.7329 17.0831 70.5288 17.4643C72.2007 17.8974 73.041 18.7203 73.041 20.141C73.041 22.168 71.4817 23.4934 68.8743 23.4934L68.883 23.502Z" fill="#0F2124"/>
<path d="M17.5038 62.7412C19.938 62.7412 21.6532 64.569 21.6532 67.1244C21.6532 70.5894 18.8638 73.3528 14.8531 73.8812V72.7724C17.3912 72.088 18.7339 70.8407 19.3143 68.675C18.7686 69.3594 17.9283 69.6885 16.7415 69.6885C14.8878 69.6885 13.6057 68.3458 13.6057 66.4574C13.6057 64.2138 15.1476 62.7412 17.5038 62.7412ZM17.5038 63.8847C16.4557 63.8847 15.9273 64.647 15.9273 66.1889C15.9273 67.8867 16.8282 68.4671 17.7204 68.4671C18.5 68.4671 19.0458 68.0427 19.3143 67.7221V67.1158C19.3143 64.9935 18.656 63.8847 17.5038 63.8847Z" fill="#0F2124"/>
<path d="M65.1407 73.7685V73.1014L68.4152 69.3766C69.9138 67.6614 70.3296 66.9424 70.3296 65.8249C70.3296 64.6209 69.7232 63.8845 68.675 63.8845C67.4276 63.8845 66.7087 64.5862 66.4141 66.1801H65.3833V63.7633C66.2409 63.1049 67.4536 62.7498 68.8136 62.7498C71.2738 62.7498 72.6511 63.8586 72.6511 65.8249C72.6511 67.5574 71.7762 68.7875 69.394 70.5807L67.2544 72.2005H69.5153C71.1698 72.2005 71.6463 71.906 72.27 70.4507H73.015L72.5039 73.7771H65.1321L65.1407 73.7685Z" fill="#0F2124"/>
</svg>
